<svg xmlns="http://www.w3.org/2000/svg" width="112" height="77" viewBox="0 0 112 77" fill="none">
<path d="M54.5405 14.2195C55.5405 13.6495 57.4005 15.0895 56.9005 13.8395C56.4005 12.5895 54.8305 11.6296 54.6605 11.2296C54.4905 10.8296 53.6005 10.0295 53.1805 10.2795C52.3705 9.57955 52.3105 9.60956 51.8005 9.60956C51.2905 9.60956 49.1205 11.1396 50.1805 10.9796C51.1157 10.9043 52.0554 10.9043 52.9905 10.9796C52.9905 11.0896 52.9905 11.2096 52.9905 11.3496C53.3905 13.5696 53.3705 12.2195 53.9905 12.9695C54.6105 13.7195 52.5405 15.3395 54.5405 14.2195Z" fill="#C3E7F9"/>
<path d="M50.0696 15.1298C50.9496 15.2598 51.9696 15.1298 52.1896 14.3798C52.4096 13.6298 53.4496 13.0798 52.1896 13.0098C51.7747 12.9143 51.3427 12.9219 50.9313 13.0317C50.52 13.1415 50.1417 13.3503 49.8296 13.6398C49.0796 14.2598 50.0696 15.1298 50.0696 15.1298Z" fill="#C3E7F9"/>
<path d="M7.94907 27.5399L8.02908 27.4599C8.47908 27.1699 11.7391 25.3799 11.7791 25.3499C14.4591 23.3499 13.9591 23.1599 17.3191 22.3499C18.6591 22.0199 20.6791 21.5099 20.3191 23.8599C20.3191 24.0199 20.5091 24.0999 20.6191 24.1999C20.6904 24.264 20.7745 24.3123 20.8659 24.3416C20.9572 24.3709 21.0537 24.3805 21.1491 24.3699C21.8491 24.2799 21.8091 24.7999 22.5091 24.2899C24.3691 22.9199 26.6091 19.8499 29.3491 19.1099C32.0891 18.3699 33.8291 19.8499 35.3491 19.1099C36.8691 18.3699 37.5791 17.7999 36.8591 17.0599C36.1391 16.3199 35.5791 15.9399 36.7191 15.3699C38.3691 14.5399 39.1291 14.4699 39.4491 14.6899C39.5913 14.7733 39.75 14.8246 39.9141 14.8401C40.0782 14.8557 40.2437 14.8351 40.3991 14.7799L41.4791 14.4499C41.6602 14.4056 41.8254 14.3115 41.9559 14.1783C42.0864 14.0451 42.1771 13.8781 42.2176 13.696C42.2582 13.514 42.247 13.3243 42.1855 13.1482C42.1239 12.9722 42.0143 12.8169 41.8691 12.6999C41.7607 12.5984 41.6891 12.4637 41.6656 12.3171C41.6421 12.1705 41.6679 12.0202 41.7391 11.8899L42.7391 10.1399C42.8391 9.96991 43.2091 10.0199 43.2091 9.81991C43.2091 8.01991 46.1291 9.05989 47.5591 8.89989C48.5905 8.89651 49.6108 8.68567 50.5591 8.2799C52.4291 7.7799 50.6291 7.2199 52.3091 7.0299C53.9891 6.8399 55.6991 6.0299 55.6991 5.4399C55.6991 4.8499 50.6991 5.7899 48.8191 5.6599C47.2686 5.70027 45.731 5.95261 44.2491 6.4099C44.1983 6.36209 44.1411 6.3217 44.0791 6.28991C43.2091 5.78991 41.8391 5.15991 42.8391 4.91991C45.6168 3.80054 48.5666 3.16796 51.5591 3.04992C53.5591 3.04992 54.4591 2.6799 54.8491 2.2799C54.9515 2.18018 55.0742 2.10359 55.2087 2.05529C55.3433 2.00699 55.4866 1.9881 55.6291 1.9999C59.8931 2.19662 64.1159 2.92562 68.1991 4.16991C68.1464 4.28068 68.0997 4.39417 68.0591 4.50991H67.7491C66.2591 4.63991 62.0191 5.1299 60.5291 6.9999C59.0391 8.8699 57.7891 7.24989 57.9091 9.11989C58.0291 10.9899 57.6591 10.9899 58.9091 11.1199C60.1591 11.2499 62.1791 10.5999 61.9091 11.3699C61.6391 12.1399 63.9091 12.3699 61.5291 12.9899C59.1491 13.6099 60.9091 12.1199 59.1691 13.6099C57.4291 15.0999 58.2891 14.9799 57.1691 15.4799C56.0491 15.9799 53.6891 15.3599 53.4391 16.2299C53.1891 17.0999 55.6791 17.5999 55.0591 18.7199C54.4391 19.8399 53.0591 19.4699 51.3191 19.8399C49.5791 20.2099 48.5791 20.8399 48.4491 22.8399C48.3491 24.5699 51.3291 24.2399 51.9591 24.8399C52.0882 24.9833 52.2599 25.0815 52.4491 25.1199C53.7491 25.2199 55.0891 25.2199 55.4491 24.4499C56.1791 22.7599 55.4491 21.3399 57.3191 21.0899C59.1891 20.8399 58.6891 20.7099 59.5591 19.9699C60.4291 19.2299 59.4391 19.2199 61.5591 19.4699C63.6791 19.7199 67.0391 21.3399 66.5591 21.9599C66.0791 22.5799 63.6891 23.0799 65.5591 23.5799C67.4291 24.0799 68.0491 24.4199 68.7991 23.3299C69.5491 22.2399 69.6691 21.9599 69.0491 21.4599C68.4291 20.9599 66.0491 19.5899 67.2991 19.8399C68.5491 20.0899 71.1591 21.9599 72.7791 24.4499C74.3991 26.9399 72.9091 22.9599 74.0291 22.7099C75.1491 22.4599 75.8991 25.3199 77.8891 25.4499C79.8791 25.5799 81.3791 25.3199 81.7491 26.3199C82.1191 27.3199 83.2491 30.0599 81.2491 29.1799C78.1391 27.8099 77.2491 29.4299 78.3891 30.0599L80.1891 31.5399C80.3173 31.6444 80.468 31.7178 80.6294 31.7542C80.7908 31.7906 80.9584 31.7892 81.1191 31.7499C81.3622 31.67 81.614 31.6196 81.8691 31.5999L82.2291 31.4999L82.9691 31.1699C83.136 31.0871 83.3228 31.0525 83.5083 31.0702C83.6939 31.0879 83.8708 31.1571 84.0191 31.2699C84.4891 31.6299 85.0191 32.1199 85.5791 32.6399C85.6523 32.6959 85.7419 32.7262 85.8341 32.7262C85.9262 32.7262 86.0158 32.6959 86.0891 32.6399C86.7833 32.2807 87.3777 31.755 87.8191 31.1099C87.9306 30.8909 88.0918 30.7009 88.2897 30.555C88.4876 30.4092 88.7168 30.3116 88.9591 30.2699L91.5391 29.7399C92.2378 29.5543 92.9563 29.4536 93.6791 29.4399H95.0091C95.0781 29.4436 95.1469 29.4289 95.2084 29.3973C95.2699 29.3657 95.3219 29.3182 95.3591 29.2599L96.0291 28.2599C96.087 28.1713 96.1117 28.065 96.0991 27.9599C96.0269 27.6767 96.0516 27.3775 96.1691 27.1099C96.4329 27.016 96.7093 26.9621 96.9891 26.9499C97.3891 26.4299 97.7691 25.9499 98.1391 25.5799C91.613 14.7718 81.4209 6.66818 69.4202 2.74563C57.4194 -1.17692 44.4088 -0.657284 32.7591 4.20989L32.2791 4.41991C31.7791 4.62991 31.2791 4.85989 30.7991 5.08989L29.9591 5.47991L29.0491 5.94991C28.3091 6.33991 27.5691 6.72989 26.8491 7.14989L26.5891 7.29992C21.4527 10.3122 16.8561 14.1619 12.9891 18.6899L12.8791 18.8199C12.5791 19.1699 12.2891 19.5299 11.9891 19.8999L11.3691 20.6899L10.7591 21.4899C10.3191 22.0899 9.87906 22.6899 9.46906 23.3099C9.44244 23.3408 9.41901 23.3743 9.39908 23.4099C8.31623 24.9291 7.35968 26.5345 6.53906 28.2099L7.94907 27.5399ZM86.1591 20.7099C87.1591 22.2899 87.4291 21.0699 89.1591 22.4399C90.2548 23.5194 90.9766 24.921 91.2191 26.4399C91.2315 26.5017 91.2295 26.5656 91.2133 26.6266C91.197 26.6875 91.1669 26.7439 91.1253 26.7913C91.0837 26.8387 91.0317 26.8759 90.9734 26.8999C90.9151 26.924 90.852 26.9342 90.7891 26.9299C90.3265 26.8998 89.8834 26.7325 89.5164 26.4493C89.1495 26.166 88.8753 25.7798 88.7291 25.3399C88.0091 23.4699 88.0391 24.2099 86.5791 22.7599C85.7788 21.9595 85.1045 21.0424 84.5791 20.0399C84.1866 19.5185 83.8949 18.9284 83.7191 18.2999C83.5791 17.1199 85.1491 19.1299 86.1591 20.7099ZM75.5891 17.7099C77.0791 17.8299 76.9591 18.5799 78.4491 18.5799C79.9391 18.5799 81.8191 19.9499 82.5591 20.6899C83.2991 21.4299 81.9391 21.9399 80.8191 21.5699C79.6991 21.1999 80.8191 20.6899 79.6991 21.1899C78.8091 21.5899 76.7991 21.1899 76.0291 21.0199C75.9401 20.9975 75.8612 20.9459 75.805 20.8734C75.7488 20.8009 75.7185 20.7116 75.7191 20.6199C75.6291 19.0099 74.1891 17.5899 75.5891 17.7099ZM31.2191 8.70989C31.8391 8.06989 32.9391 6.85991 32.6291 6.82991C29.9391 6.63991 35.8391 5.33991 36.9791 5.00991C38.1191 4.67991 39.8691 4.4299 39.6691 4.7499C39.4691 5.0699 37.7991 5.85989 38.3191 6.17989C38.8391 6.49989 38.0091 6.82989 37.1791 7.08989C36.233 7.23061 35.2999 7.44801 34.3891 7.73992C33.1191 8.15992 32.0891 8.57991 31.4591 8.85991C31.3091 8.95991 31.1191 8.8499 31.2191 8.7499V8.70989Z" fill="#C3E7F9"/>
<path d="M28.8198 64.19C28.7367 64.5795 28.5246 64.9295 28.218 65.1835C27.9113 65.4376 27.5279 65.5808 27.1298 65.59C26.2698 65.59 25.7198 65.02 24.4698 65.02C24.0453 64.9701 23.6165 65.0656 23.2533 65.2908C22.89 65.516 22.6138 65.8576 22.4698 66.26C22.0498 68.21 29.2898 66.96 28.2498 71.85C27.6698 74.56 24.8498 76.25 21.9698 76.25C20.3598 76.25 16.9698 75.91 17.3498 74.12C17.4364 73.7374 17.6513 73.3959 17.9587 73.1522C18.2661 72.9085 18.6475 72.7771 19.0398 72.78C20.0398 72.78 21.0398 73.52 22.3898 73.52C22.9376 73.5879 23.4915 73.4566 23.9504 73.15C24.4094 72.8434 24.7428 72.382 24.8898 71.85C25.3698 69.61 18.1098 70.96 19.0398 66.56C19.6098 63.9 22.3598 62.25 25.1298 62.25C26.2998 62.29 29.1398 62.69 28.8198 64.19Z" fill="#003D58"/>
<path d="M40.3907 62.2902C41.9207 62.2902 44.7807 62.7502 44.3907 64.4202C44.3086 64.7751 44.1107 65.0925 43.8283 65.3224C43.5458 65.5524 43.1948 65.6818 42.8307 65.6902C41.9707 65.6902 41.5307 65.0202 39.7707 65.0202C38.5894 65.0629 37.4602 65.517 36.5783 66.304C35.6963 67.091 35.1171 68.1614 34.9406 69.3302C34.4606 71.5802 35.4006 73.5202 37.9406 73.5202C39.6906 73.5202 40.5707 72.7202 41.4307 72.7202C41.5937 72.714 41.756 72.7449 41.9054 72.8104C42.0548 72.876 42.1874 72.9745 42.2932 73.0987C42.3991 73.2228 42.4754 73.3693 42.5165 73.5272C42.5577 73.6851 42.5625 73.8502 42.5307 74.0102C42.1407 75.8302 38.9007 76.2502 37.3607 76.2502C33.1207 76.2502 30.8306 73.2502 31.6606 69.2502C32.1016 67.2672 33.2084 65.4951 34.7968 64.2288C36.3852 62.9625 38.3593 62.2783 40.3907 62.2902V62.2902Z" fill="#003D58"/>
<path d="M45.6896 69.2695C46.1184 67.2901 47.211 65.5167 48.7861 64.2435C50.3612 62.9703 52.3243 62.2738 54.3496 62.2695C58.5396 62.2695 60.8596 65.3995 60.0396 69.2695C59.6125 71.2498 58.5204 73.0243 56.9449 74.2978C55.3694 75.5713 53.4055 76.2671 51.3796 76.2695C47.1396 76.2495 44.8496 73.1995 45.6896 69.2695ZM56.7896 69.2695C57.2796 66.9795 56.3996 64.9095 53.7896 64.9095C52.601 64.9611 51.4674 65.4243 50.5826 66.2196C49.6979 67.015 49.1171 68.0931 48.9396 69.2695C48.4496 71.5795 49.2896 73.6295 51.9396 73.6295C53.1312 73.5875 54.27 73.1276 55.1567 72.3305C56.0433 71.5334 56.6214 70.4499 56.7896 69.2695V69.2695Z" fill="#003D58"/>
<path d="M64.7005 64.0003C64.7828 63.5609 65.0241 63.1671 65.3782 62.8942C65.7323 62.6212 66.1745 62.4881 66.6205 62.5204H70.3005C73.5105 62.5204 75.2205 63.8303 74.5805 66.8103C74.1405 68.8903 72.1505 70.0904 69.9605 70.3904L72.7805 73.8403C72.88 73.9519 72.9532 74.0845 72.9947 74.2281C73.0363 74.3717 73.0451 74.5229 73.0205 74.6704C72.9049 75.083 72.6598 75.4476 72.3213 75.7105C71.9828 75.9733 71.5689 76.1205 71.1405 76.1303C70.9302 76.1394 70.7207 76.0999 70.5282 76.0149C70.3357 75.93 70.1654 75.8018 70.0305 75.6404L66.4805 70.5403L65.6105 74.6603C65.5229 75.0888 65.2856 75.4721 64.9411 75.7415C64.5966 76.0108 64.1674 76.1487 63.7305 76.1303C62.8305 76.1303 62.2805 75.6003 62.4805 74.6603L64.7005 64.0003ZM66.8804 68.4904H69.0305C69.5512 68.5306 70.0691 68.3834 70.4909 68.0753C70.9126 67.7673 71.2104 67.3186 71.3305 66.8103C71.5605 65.7303 70.8905 65.1404 69.7405 65.1404H67.5905L66.8804 68.4904Z" fill="#003D58"/>
<path d="M78.9401 64.1697C79.0091 63.6954 79.2521 63.2638 79.6218 62.9588C79.9915 62.6538 80.4614 62.4973 80.9401 62.5197H86.1102C87.1102 62.5197 87.4601 63.1697 87.3201 63.8297C87.2185 64.2151 86.989 64.5545 86.6693 64.7925C86.3495 65.0305 85.9585 65.1529 85.5602 65.1397H81.8801L81.3002 67.9097H84.7201C85.7201 67.9097 86.1102 68.5497 85.9602 69.2097C85.8554 69.6011 85.6195 69.9447 85.2919 70.1831C84.9643 70.4215 84.5648 70.5403 84.1601 70.5197H80.7402L80.1301 73.3997H83.9902C84.9902 73.3997 85.3301 74.0497 85.1901 74.7097C85.0918 75.0969 84.8631 75.4385 84.5426 75.677C84.2222 75.9156 83.8293 76.0366 83.4302 76.0197H78.0502C77.1302 76.0197 76.5602 75.4497 76.7402 74.5997L78.9401 64.1697Z" fill="#003D58"/>
<path d="M22.9795 28.0696C21.9795 28.1496 20.9795 28.2796 19.9195 28.4496C19.9776 28.0391 19.9331 27.6206 19.79 27.2314C19.6469 26.8423 19.4097 26.4946 19.0995 26.2196C18.1595 25.3796 12.0995 27.0996 12.9495 27.8996C13.196 28.1895 13.3706 28.5335 13.4592 28.9036C13.5478 29.2737 13.5479 29.6594 13.4595 30.0296C11.9895 30.4896 10.5394 31.0296 9.12945 31.5396C7.05119 32.3021 5.05729 33.2773 3.17947 34.4496C2.17947 35.0996 0.469469 36.2096 0.399469 37.5496C0.279469 39.6296 3.80946 40.1196 5.26946 40.1896C6.69832 40.2492 8.12948 40.1587 9.53945 39.9196C9.38945 40.2696 9.22945 40.6196 9.06945 40.9696C7.06945 45.4496 5.30946 49.9696 4.13946 53.1896C3.81647 53.9695 3.76022 54.8344 3.97946 55.6496C4.38946 57.8896 4.79946 59.0996 5.07946 59.2696C6.00946 58.9696 6.34947 58.2196 6.80947 57.2696C9.68947 51.2696 12.9394 45.0096 15.6594 38.9496C16.7894 36.4296 17.9294 33.9496 18.9994 31.3696C19.1094 31.1096 19.2295 30.8296 19.3395 30.5496C20.6229 30.4669 21.9062 30.7111 23.0695 31.2596C23.6444 31.5197 24.1622 31.8908 24.5933 32.3517C25.0243 32.8125 25.3601 33.354 25.5812 33.945C25.8024 34.5359 25.9046 35.1648 25.882 35.7954C25.8594 36.426 25.7124 37.0459 25.4495 37.6196C25.1053 38.75 24.3828 39.7278 23.4032 40.3887C22.4236 41.0497 21.2466 41.3536 20.0695 41.2496C18.8195 41.2496 18.5194 41.9696 17.4994 42.6596C17.1594 42.8796 15.4995 43.9596 16.7795 43.9596C22.1995 43.9596 29.4595 41.4996 31.3495 35.8496C33.2395 30.1996 27.7195 27.7296 22.9795 28.0696ZM12.4795 33.2896C11.8595 34.7296 11.2295 36.1496 10.5995 37.5796C10.1695 37.5796 9.73945 37.5796 9.31945 37.5796C8.31945 37.5296 5.31944 37.1696 5.49944 35.5796C5.58944 34.7196 7.06947 34.1796 7.73947 33.8596C9.42557 33.1035 11.1674 32.4783 12.9495 31.9896V31.9896C12.7995 32.5096 12.6195 32.9496 12.4795 33.2896V33.2896Z" fill="#003D58"/>
<path d="M108.871 37.4197L106.371 37.5197C104.731 37.5197 103.081 37.5797 101.441 37.5797C101.861 36.9197 102.271 36.2597 102.721 35.5797L102.981 35.2197C103.103 35.0415 103.168 34.8306 103.168 34.6147C103.168 34.3987 103.103 34.1878 102.981 34.0097L101.151 31.5397C101.115 31.4895 101.07 31.4471 101.017 31.4152C100.965 31.3833 100.906 31.3624 100.845 31.354C100.784 31.3456 100.722 31.3497 100.663 31.3661C100.604 31.3826 100.549 31.411 100.501 31.4497C98.7516 33.2304 97.2361 35.2264 95.9908 37.3897C95.0408 37.2997 94.1408 37.1897 92.5108 37.1597C90.9801 37.3038 89.5059 37.8112 88.2108 38.6397C87.8508 38.8797 86.5108 40.0397 87.7408 40.0597C90.4708 40.1097 92.0608 40.1397 94.2908 40.1497C92.2039 43.3568 90.4769 46.7842 89.1408 50.3697C88.8378 50.5402 88.5529 50.7413 88.2908 50.9697C86.8389 52.245 85.1911 53.2782 83.4108 54.0297C81.5108 54.7797 78.2208 54.7597 77.3408 52.8897C80.4138 52.6254 83.3367 51.4444 85.7308 49.4997C87.0308 48.3697 88.6308 46.0197 87.0708 44.4997C85.5108 42.9797 82.2408 43.7397 80.3808 44.4997C76.8408 45.8797 72.5608 49.1297 72.0708 53.2497C72.0561 53.426 72.0561 53.6033 72.0708 53.7797C71.0208 54.6297 69.4807 55.5497 68.9707 54.3497C68.4607 53.1497 69.4508 51.2697 69.8108 50.2197C70.3408 48.6497 72.4808 44.5797 69.2108 45.1197C65.7408 45.6897 63.0708 48.5397 60.6408 50.8297C59.8508 51.5697 59.0508 52.3197 58.2408 53.0497C58.5408 50.4297 60.7108 47.5597 62.1608 45.4397C62.8108 44.4397 61.3508 44.6797 60.8108 44.7897C59.5372 44.9914 58.3625 45.598 57.4608 46.5197C55.8638 48.6135 54.5524 50.9102 53.5608 53.3497C52.8408 53.8897 51.8508 54.6597 51.3808 54.5497C50.4808 54.3297 50.3808 53.1797 50.3808 52.4197C50.5281 50.9421 50.9095 49.4974 51.5108 48.1397C51.8908 47.1397 52.9007 45.6997 51.9407 44.7397C49.8807 42.7397 44.5908 44.6097 42.6208 45.5397C40.3244 46.5061 38.4461 48.2569 37.3208 50.4797C37.0537 51.0374 36.8232 51.612 36.6308 52.1997C36.486 52.6541 36.3954 53.124 36.3608 53.5997C35.3577 54.3858 34.2418 55.0162 33.0508 55.4697C32.7682 55.4536 32.4997 55.3406 32.2908 55.1497C31.6308 54.5597 31.7208 53.2297 31.7808 52.4497C31.845 51.0914 32.0836 49.7471 32.4908 48.4497C39.1981 44.853 44.6009 39.2334 47.9308 32.3897C48.7208 30.9397 48.9308 28.9697 46.7608 28.8297C42.2708 28.5397 37.6008 32.4497 34.7608 35.6397C32.1779 38.6368 30.1312 42.0569 28.7108 45.7497C28.4808 46.3397 28.2708 46.9297 28.0708 47.5197C27.1032 47.9047 26.0976 48.1863 25.0708 48.3597C24.9708 48.4397 22.7508 50.6897 23.2008 50.8297H23.2808C24.6898 50.6479 26.0746 50.3125 27.4107 49.8297C27.1207 50.9197 26.8807 52.0297 26.6907 53.1397C26.4707 54.4597 26.1208 56.3497 27.0308 57.4797C28.8608 59.7597 33.4208 57.3297 35.3208 56.2897L36.7308 55.4597C36.8353 55.624 36.9633 55.7723 37.1108 55.8997C37.9534 56.4273 38.9683 56.6066 39.9407 56.3997C41.7972 56.1806 43.6048 55.657 45.2908 54.8497C45.2989 55.4721 45.5417 56.0686 45.9707 56.5197C46.9707 57.5197 48.7808 57.1397 50.0208 56.8197C51.1152 56.5188 52.177 56.1102 53.1907 55.5997C53.5407 58.3997 59.0508 55.2597 60.4508 54.1797C62.0608 52.9197 63.5208 51.4797 65.0108 50.0797L65.5908 49.5497C65.4208 50.0497 65.2308 50.5497 65.0708 51.0197C64.5508 52.5297 63.7308 54.2897 63.8608 55.9297C64.0608 58.2497 67.2808 57.4497 68.8008 57.0597C70.134 56.703 71.4248 56.2035 72.6508 55.5697C74.2508 57.6797 78.8608 57.1797 81.1508 56.5697C83.8223 55.8188 86.3718 54.6872 88.7207 53.2097C88.7207 55.3997 89.7208 57.4397 92.3808 57.6997C96.2208 58.0897 100.691 56.1697 103.901 53.9597C104.181 53.7597 103.071 52.4997 102.631 52.6497C101.901 52.9194 101.224 53.3155 100.631 53.8197C99.0408 55.0197 95.7208 55.9997 94.3908 53.9797C93.2608 52.2597 94.8108 49.9797 95.6508 48.0697C96.6168 45.8426 97.7154 43.6754 98.9408 41.5797C99.2508 41.0597 99.5808 40.5297 99.9408 40.0097C103.172 39.7407 106.382 39.2597 109.551 38.5697C109.871 38.4997 110.091 38.6797 111.501 37.4797C111.841 37.1897 110.211 37.3097 108.871 37.4197ZM82.2608 46.9397C83.1608 47.9397 82.1708 49.8797 81.3408 50.2097C80.1613 50.5247 78.9315 50.6063 77.7207 50.4497C77.6275 50.4447 77.534 50.4447 77.4408 50.4497C78.1908 48.3697 80.4508 44.8497 82.2608 46.9397ZM37.5408 37.3697C38.8869 35.4121 40.5067 33.6576 42.3508 32.1597C42.3508 32.1597 43.3508 31.3497 43.5308 31.9097C43.6185 32.3231 43.573 32.7537 43.4008 33.1397C42.3108 36.1397 39.6708 39.2197 37.5808 41.4097C36.6408 42.4097 34.6808 44.1897 33.5808 45.0797C34.6481 42.3875 35.9743 39.8054 37.5408 37.3697V37.3697ZM46.7708 48.9597C46.3491 49.9547 45.995 50.977 45.7108 52.0197C45.6508 52.2297 45.5908 52.4597 45.5308 52.6997L44.9808 53.0697C44.1008 53.7097 42.8808 54.0697 42.3008 53.7697C41.1308 53.0597 41.3708 51.7197 41.7108 50.5597C41.9919 49.3967 42.5092 48.3041 43.2308 47.3497C43.4229 47.1423 43.6568 46.9781 43.9171 46.8678C44.1774 46.7574 44.4581 46.7036 44.7408 46.7097H45.6208C45.9675 46.695 46.3122 46.7708 46.6208 46.9297C47.3008 47.3197 47.2308 47.8497 46.7708 48.9597V48.9597Z" fill="#003D58"/>
</svg>